# xmcd
#
# Track frame offsets: 
#        150
#        20237
#        41987
#        64075
#        86387
#        109375
#        126750
#        145587
#        168375
#        191937
#
# Disc length: 2833 seconds
#
# Revision: 0
# Processed by: cddbd v1.5.2PL0 Copyright (c) Steve Scherf et al.
# Submitted via: ExactAudioCopy v1.0b1
#
DISCID=920b0f0a
DTITLE=黎沸揮 - 想著你的人
DYEAR=1996
DGENRE=Country
TTITLE0=想著你的人
TTITLE1=真的不愛就說
TTITLE2=枉費情深(彭佳慧)
TTITLE3=愛你愛得太瘋狂
TTITLE4=FOREVER WITH YOU
TTITLE5=想愛你的人很多
TTITLE6=在我最愛你的時候離開我
TTITLE7=我的心沒有不同
TTITLE8=愛得多痛更多
TTITLE9=信以為真
EXTD=
EXTT0=
EXTT1=
EXTT2=
EXTT3=
EXTT4=
EXTT5=
EXTT6=
EXTT7=
EXTT8=
EXTT9=
PLAYORDER=
